<?xml version="1.0" standalone="no"?>
<!DOCTYPE svg PUBLIC "-//W3C//DTD SVG 20010904//EN"
 "http://www.w3.org/TR/2001/REC-SVG-20010904/DTD/svg10.dtd">
<svg version="1.0" xmlns="http://www.w3.org/2000/svg"
 width="533.000000pt" height="533.000000pt" viewBox="0 0 533.000000 533.000000"
 preserveAspectRatio="xMidYMid meet">
<metadata>
Created by potrace 1.11, written by Peter Selinger 2001-2013
</metadata>
<g transform="translate(0.000000,533.000000) scale(0.100000,-0.100000)"
fill="#000000" stroke="none">
<path d="M468 4952 c-15 -13 -28 -28 -28 -33 0 -5 -13 -30 -29 -56 -139 -231
-401 -698 -401 -715 0 -22 2138 -3736 2173 -3775 l20 -23 463 0 c426 0 463 1
482 18 10 9 486 827 1057 1817 571 990 1056 1829 1077 1864 21 35 41 74 44 87
5 18 -42 106 -204 386 -115 200 -217 377 -226 395 -9 18 -25 37 -36 43 -13 7
-713 11 -2192 13 l-2172 2 -28 -23z m4457 -429 c88 -152 162 -281 163 -285 2
-4 -741 -8 -1651 -8 -910 0 -1662 -2 -1671 -6 -18 -7 -46 -54 -46 -76 0 -18
-12 4 440 -778 221 -382 403 -700 403 -706 0 -12 -315 -564 -323 -564 -4 0
-1549 2667 -1558 2692 -2 4 916 8 2040 8 l2043 0 160 -277z m-3566 -1253 c436
-756 801 -1386 810 -1399 24 -34 64 -46 101 -31 30 13 95 120 676 1132 l199
347 328 1 c180 0 327 -2 327 -5 0 -9 -1542 -2679 -1554 -2692 -8 -8 -273 443
-1026 1748 -558 968 -1015 1767 -1015 1777 0 9 72 142 159 294 l160 277 21
-37 c12 -20 378 -656 814 -1412z m1564 2 c-16 -27 -77 -135 -138 -240 -60
-105 -113 -192 -116 -192 -6 0 -279 466 -279 476 0 2 126 4 280 4 l280 0 -27
-48z"/>
</g>
</svg>
