<?xml version="1.0" encoding="UTF-8" standalone="no"?>
<svg
   viewBox="0 0 337.06766 293.337"
   height="293.33701"
   width="337.06766"
   xml:space="preserve"
   id="svg2"
   version="1.1"
   sodipodi:docname="penrose_triangle.svg"
   inkscape:version="1.3 (0e150ed, 2023-07-21)"
   xmlns:inkscape="http://www.inkscape.org/namespaces/inkscape"
   xmlns:sodipodi="http://sodipodi.sourceforge.net/DTD/sodipodi-0.dtd"
   xmlns="http://www.w3.org/2000/svg"
   xmlns:svg="http://www.w3.org/2000/svg"
   xmlns:rdf="http://www.w3.org/1999/02/22-rdf-syntax-ns#"
   xmlns:cc="http://creativecommons.org/ns#"
   xmlns:dc="http://purl.org/dc/elements/1.1/"><sodipodi:namedview
     id="namedview1"
     pagecolor="#ffffff"
     bordercolor="#000000"
     borderopacity="0.25"
     inkscape:showpageshadow="2"
     inkscape:pageopacity="0.0"
     inkscape:pagecheckerboard="true"
     inkscape:deskcolor="#d1d1d1"
     inkscape:clip-to-page="false"
     labelstyle="default"
     inkscape:zoom="1.6218751"
     inkscape:cx="168.63198"
     inkscape:cy="146.43545"
     inkscape:window-width="1392"
     inkscape:window-height="1212"
     inkscape:window-x="799"
     inkscape:window-y="307"
     inkscape:window-maximized="0"
     inkscape:current-layer="svg2" /><metadata
     id="metadata8"><rdf:RDF><cc:Work
         rdf:about=""><dc:format>image/svg+xml</dc:format><dc:type
           rdf:resource="http://purl.org/dc/dcmitype/StillImage" /></cc:Work></rdf:RDF></metadata><defs
     id="defs6" /><g
     transform="matrix(1.3333333,0,0,-1.3333333,-98.132922,413.33599)"
     id="g10"><g
       transform="scale(0.1)"
       id="g12"><path
         id="path14"
         style="fill:#8ec4cb;fill-opacity:1;fill-rule:nonzero;stroke:none"
         d="M 1796,1646.7 980,3060 h 2040 l 204,-353.3 h -816 -816 l 204,-353.4 204,-353.3 -204,-353.3" /><path
         id="path16"
         style="fill:#fab832;fill-opacity:1;fill-rule:nonzero;stroke:none"
         d="M 1796,940 775.996,2706.7 980,3060 l 816,-1413.3 204,353.3 204,353.3 h 408 L 1796,940" /><path
         id="path18"
         style="fill:#e23e44;fill-opacity:1;fill-rule:nonzero;stroke:none"
         d="m 1796,2353.3 -204,353.4 H 3224 L 2204,940 h -408 l 816,1413.3 h -408 -408" /><path
         id="path20"
         style="fill:#29355b;fill-opacity:1;fill-rule:nonzero;stroke:none"
         d="m 2204.04,2393.32 c 6.78,0 13.66,-1.73 19.96,-5.37 19.13,-11.05 25.69,-35.51 14.63,-54.64 l -407.99,-706.6 c -11.04,-19.14 -35.5,-25.71 -54.64,-14.64 -19.12,11.05 -25.69,35.51 -14.63,54.64 l 407.99,706.6 c 7.41,12.83 20.85,20.01 34.68,20.01" /><path
         id="path22"
         style="fill:#29355b;fill-opacity:1;fill-rule:nonzero;stroke:none"
         d="m 3019.96,3100.02 c 13.83,0 27.27,-7.18 34.68,-20.01 l 203.99,-353.3 c 11.06,-19.13 4.5,-43.59 -14.63,-54.64 -19.14,-11.04 -43.6,-4.49 -54.64,14.64 l -204,353.3 c -11.04,19.13 -4.49,43.6 14.64,54.64 6.3,3.64 13.17,5.37 19.96,5.37" /><path
         id="path24"
         style="fill:#29355b;fill-opacity:1;fill-rule:nonzero;stroke:none"
         d="m 1591.96,2746.72 c 13.83,0 27.28,-7.18 34.68,-20.01 l 408,-706.7 c 11.04,-19.13 4.49,-43.59 -14.64,-54.64 -19.14,-11.04 -43.59,-4.49 -54.64,14.64 l -408,706.7 c -11.05,19.13 -4.49,43.59 14.65,54.64 6.29,3.64 13.17,5.37 19.95,5.37" /><path
         id="path26"
         style="fill:#29355b;fill-opacity:1;fill-rule:nonzero;stroke:none"
         d="m 775.957,2746.72 c 13.828,0 27.273,-7.18 34.688,-20.01 L 1830.64,960.012 c 11.05,-19.133 4.5,-43.59 -14.64,-54.641 -19.13,-11.07 -43.6,-4.492 -54.63,14.641 L 741.367,2686.71 c -11.054,19.13 -4.492,43.59 14.629,54.64 6.309,3.64 13.184,5.37 19.961,5.37" /><path
         id="path28"
         style="fill:#29355b;fill-opacity:1;fill-rule:nonzero;stroke:none"
         d="m 1796,980.012 h 408 c 22.09,0 40,-17.91 40,-40 0,-22.09 -17.91,-40 -40,-40 h -408 c -22.09,0 -40,17.91 -40,40 0,22.09 17.91,40 40,40" /><path
         id="path30"
         style="fill:#29355b;fill-opacity:1;fill-rule:nonzero;stroke:none"
         d="m 3224.04,2746.72 c 6.78,0 13.66,-1.73 19.96,-5.37 19.13,-11.05 25.69,-35.51 14.63,-54.64 l -1020,-1766.698 c -11.03,-19.141 -35.5,-25.711 -54.63,-14.641 -19.14,11.051 -25.69,35.508 -14.64,54.641 l 1020,1766.698 c 7.41,12.83 20.85,20.01 34.68,20.01" /><path
         id="path32"
         style="fill:#29355b;fill-opacity:1;fill-rule:nonzero;stroke:none"
         d="m 2408,2746.71 h 816 c 22.09,0 40,-17.91 40,-40 0,-22.09 -17.91,-40 -40,-40 h -816 c -22.09,0 -40,17.91 -40,40 0,22.09 17.91,40 40,40" /><path
         id="path34"
         style="fill:#29355b;fill-opacity:1;fill-rule:nonzero;stroke:none"
         d="m 980.039,3100.02 c 6.785,0 13.66,-1.73 19.961,-5.37 19.13,-11.04 25.68,-35.51 14.64,-54.64 l -203.995,-353.3 c -11.043,-19.14 -35.508,-25.7 -54.649,-14.64 -19.121,11.05 -25.683,35.51 -14.629,54.64 l 203.992,353.3 c 7.414,12.83 20.852,20.01 34.68,20.01" /><path
         id="path36"
         style="fill:#29355b;fill-opacity:1;fill-rule:nonzero;stroke:none"
         d="m 1592,2746.71 h 816 c 22.09,0 40,-17.91 40,-40 0,-22.09 -17.91,-40 -40,-40 h -816 c -22.09,0 -40,17.91 -40,40 0,22.09 17.91,40 40,40" /><path
         id="path38"
         style="fill:#29355b;fill-opacity:1;fill-rule:nonzero;stroke:none"
         d="m 979.961,3100.02 c 13.828,0 27.269,-7.18 34.679,-20.01 l 816,-1413.3 c 11.05,-19.13 4.5,-43.59 -14.64,-54.64 -19.13,-11.06 -43.6,-4.48 -54.63,14.64 l -816.011,1413.3 c -11.043,19.13 -4.492,43.6 14.641,54.64 6.301,3.64 13.184,5.37 19.961,5.37" /><path
         id="path40"
         style="fill:#29355b;fill-opacity:1;fill-rule:nonzero;stroke:none"
         d="m 2612.04,2393.32 c 6.79,0 13.66,-1.73 19.96,-5.37 19.13,-11.05 25.7,-35.51 14.64,-54.64 l -816,-1413.298 c -11.04,-19.141 -35.5,-25.711 -54.64,-14.641 -19.12,11.051 -25.69,35.508 -14.63,54.641 l 815.99,1413.298 c 7.41,12.83 20.86,20.01 34.68,20.01" /><path
         id="path42"
         style="fill:#29355b;fill-opacity:1;fill-rule:nonzero;stroke:none"
         d="m 1796,2393.31 h 816 c 22.09,0 40,-17.91 40,-40 0,-22.09 -17.91,-40 -40,-40 h -816 c -22.09,0 -40,17.91 -40,40 0,22.09 17.91,40 40,40" /><path
         id="path44"
         style="fill:#29355b;fill-opacity:1;fill-rule:nonzero;stroke:none"
         d="m 980,3100.01 h 2040 c 22.09,0 40,-17.91 40,-40 0,-22.09 -17.91,-40 -40,-40 H 980 c -22.09,0 -40,17.91 -40,40 0,22.09 17.91,40 40,40" /></g></g></svg>
